<?xml version="1.0" encoding="utf-8"?>
<!-- Generator: Adobe Illustrator 19.2.1, SVG Export Plug-In . SVG Version: 6.00 Build 0)  -->
<svg version="1.1" id="Layer_1" xmlns="http://www.w3.org/2000/svg" xmlns:xlink="http://www.w3.org/1999/xlink" x="0px" y="0px"
	 viewBox="0 0 100 20" style="enable-background:new 0 0 100 20;" xml:space="preserve">
<style type="text/css">
	.st0{fill:#FFFFFF;}
</style>
<g>
	<path class="st0" d="M4.9,1.6h0.6c0.9,0,1.6,0.4,2.2,1.1l1.5,1.9c0.2,0.2,0.3,0.3,0.4,0.3c0.1,0,0.7-0.6,1.8-1.9
		c0.7-0.9,1.7-1.4,2.8-1.4h0.9c1.6,0,2.7,1.4,3.3,4.1c0.6,3.4,1.1,6.8,1.3,10.4c0.1,0.8-0.2,1.4-0.8,1.7c-0.5,0.3-1.2,0.4-2,0.4
		l-1.6,0c-1,0-1.7-0.2-2.2-0.5c-0.5-0.4-0.8-1-0.9-2c-0.3-2.3-0.5-3.5-0.6-3.5c-0.1,0-0.2,0.1-0.2,0.2c-0.2,0.3-0.7,0.9-1.5,1.9
		c-0.4,0.5-0.8,0.8-1.2,0.8c-0.4,0-0.8-0.3-1.2-0.7l-1.5-1.9c-0.1-0.1-0.1-0.1-0.2-0.1c-0.2,0-0.3,0.8-0.5,2.4
		c0,0.4-0.1,0.9-0.2,1.6c-0.1,0.7-0.3,1.2-0.7,1.5c-0.3,0.2-0.9,0.3-1.7,0.3c-0.8,0-1.4-0.3-1.6-0.7c-0.2-0.3-0.3-0.9-0.3-1.8
		c0.1-3.3,0.4-6.6,1-9.8C2.4,3,3.4,1.6,4.9,1.6z"/>
	<path class="st0" d="M34,16.1c0,0.9-0.7,1.5-2.1,1.8c-1.3,0.2-2.9,0.4-4.9,0.4c-3.3,0-5.2-0.3-5.7-0.9c-0.4-0.5-0.6-2-0.6-4.4V11
		c0-3.6,0.2-5.6,0.4-6.1c0.4-0.8,2.3-1.2,5.6-1.2c1.9,0,3.7,0.2,5.1,0.4c0.7,0.1,1.2,0.3,1.4,0.5C33.8,4.8,34,5.3,34,5.9
		c0,0.4-0.1,0.8-0.2,1.1c-0.2,0.4-0.4,0.7-0.8,0.7c-0.3,0-0.6-0.1-1.1-0.1c-0.5-0.1-0.8-0.1-1.1-0.1c-0.7,0-1.2,0-1.4,0.2
		C29.1,7.7,29,8,29,8.5c0,0.5,0.4,0.9,1.2,1.1c0.2,0,0.8,0.1,1.9,0.1c0.5,0,0.8,0.5,0.8,1.3c0,0.6-0.2,1-0.4,1.2
		c-0.2,0.1-0.7,0.2-1.5,0.2c-0.8,0-1.4,0.1-1.7,0.4c-0.2,0.2-0.2,0.4-0.2,0.8c0,0.5,0.2,0.8,0.4,0.9c0.2,0.1,0.6,0.2,1.4,0.1
		c0.5,0,1.2-0.1,2.2-0.2C33.7,14.2,34,14.8,34,16.1z"/>
	<path class="st0" d="M49.5,13.1c0,0.1,0,0.7,0,1.8v0.9c0,0.2,0,0.3,0,0.4v0.8c-0.1,0.8-0.6,1.2-1.5,1.2c-1.2,0-1.8-0.3-1.9-0.9
		L46,16.9c-0.9,1-2.3,1.5-4.3,1.5c-2.2,0-4-0.7-5.3-2.1c-1.3-1.4-1.9-3.2-1.9-5.5c0-2.3,0.7-4.2,2-5.5c1.4-1.3,3.2-2,5.6-2
		c3.9,0,6.3,1.6,7.3,4.7c0.1,0.2,0.1,0.4,0.1,0.6c0,0.5-0.3,0.9-0.8,1.1C48.4,9.8,47.8,9.9,47,10c-0.6,0.1-1-0.2-1.2-0.8
		c-0.3-1.3-1-1.9-1.9-1.8c-0.7,0.1-1.2,0.9-1.3,2.5c-0.1,0.5-0.1,0.8-0.1,1c0,2.5,0.7,3.7,2,3.5c0.8-0.1,1.2-0.6,1.2-1.5
		c0-0.7,0.3-1.1,0.8-1.2c0.2-0.1,0.8-0.1,1.7-0.1C49,11.7,49.4,12.2,49.5,13.1z"/>
	<path class="st0" d="M54.6,1.6h0.6c0.9,0,1.6,0.4,2.2,1.1l1.5,1.9c0.2,0.2,0.3,0.3,0.4,0.3c0.1,0,0.7-0.6,1.8-1.9
		c0.7-0.9,1.7-1.4,2.8-1.4h0.9c1.6,0,2.7,1.4,3.3,4.1c0.6,3.4,1.1,6.8,1.3,10.4c0.1,0.8-0.2,1.4-0.8,1.7c-0.5,0.3-1.2,0.4-2,0.4
		l-1.6,0c-1,0-1.7-0.2-2.2-0.5c-0.5-0.4-0.8-1-0.9-2c-0.3-2.3-0.5-3.5-0.6-3.5c-0.1,0-0.2,0.1-0.2,0.2c-0.2,0.3-0.7,0.9-1.5,1.9
		c-0.4,0.5-0.8,0.8-1.2,0.8s-0.8-0.3-1.2-0.7l-1.5-1.9c-0.1-0.1-0.1-0.1-0.2-0.1c-0.2,0-0.3,0.8-0.5,2.4c0,0.4-0.1,0.9-0.2,1.6
		c-0.1,0.7-0.3,1.2-0.7,1.5c-0.3,0.2-0.9,0.3-1.7,0.3c-0.8,0-1.4-0.3-1.6-0.7c-0.2-0.3-0.3-0.9-0.3-1.8c0.1-3.3,0.4-6.6,1-9.8
		C52.1,3,53.1,1.6,54.6,1.6z"/>
	<path class="st0" d="M83.7,16.1c0,0.9-0.7,1.5-2.1,1.8c-1.3,0.2-2.9,0.4-4.9,0.4c-3.3,0-5.2-0.3-5.7-0.9c-0.4-0.5-0.6-2-0.6-4.4V11
		c0-3.6,0.2-5.6,0.4-6.1c0.4-0.8,2.3-1.2,5.6-1.2c1.9,0,3.7,0.2,5.1,0.4c0.7,0.1,1.2,0.3,1.4,0.5c0.4,0.3,0.6,0.7,0.6,1.3
		c0,0.4-0.1,0.8-0.2,1.1c-0.2,0.4-0.4,0.7-0.8,0.7c-0.3,0-0.6-0.1-1.1-0.1c-0.5-0.1-0.8-0.1-1.1-0.1c-0.7,0-1.2,0-1.4,0.2
		c-0.3,0.2-0.4,0.5-0.4,0.9c0,0.5,0.4,0.9,1.2,1.1c0.2,0,0.8,0.1,1.9,0.1c0.5,0,0.8,0.5,0.8,1.3c0,0.6-0.2,1-0.4,1.2
		c-0.2,0.1-0.7,0.2-1.5,0.2c-0.8,0-1.4,0.1-1.7,0.4c-0.2,0.2-0.2,0.4-0.2,0.8c0,0.5,0.2,0.8,0.4,0.9c0.2,0.1,0.6,0.2,1.4,0.1
		c0.5,0,1.2-0.1,2.2-0.2C83.4,14.2,83.7,14.8,83.7,16.1z"/>
	<path class="st0" d="M99.2,13.1c0,0.1,0,0.7,0,1.8v0.9c0,0.2,0,0.3,0,0.4v0.8c-0.1,0.8-0.6,1.2-1.5,1.2c-1.2,0-1.8-0.3-1.9-0.9
		l-0.1-0.4c-0.9,1-2.3,1.5-4.3,1.5c-2.2,0-4-0.7-5.3-2.1c-1.3-1.4-1.9-3.2-1.9-5.5c0-2.3,0.7-4.2,2-5.5c1.4-1.3,3.2-2,5.6-2
		c3.9,0,6.3,1.6,7.3,4.7c0.1,0.2,0.1,0.4,0.1,0.6c0,0.5-0.3,0.9-0.8,1.1c-0.3,0.1-0.8,0.2-1.6,0.3c-0.6,0.1-1-0.2-1.2-0.8
		c-0.3-1.3-1-1.9-1.9-1.8c-0.7,0.1-1.2,0.9-1.3,2.5c-0.1,0.5-0.1,0.8-0.1,1c0,2.5,0.7,3.7,2,3.5c0.8-0.1,1.2-0.6,1.2-1.5
		c0-0.7,0.3-1.1,0.8-1.2c0.2-0.1,0.8-0.1,1.7-0.1C98.7,11.7,99.1,12.2,99.2,13.1z"/>
</g>
</svg>
